Patient4_TMGait_0pt6_02_right_39_EMG.mot
version=1
nRows=30
nColumns=33
inDegrees=no
endheader
time	1LAddLong	2LGlutMax	3LGlutMed	4LIliopsoas	5LSemiMemb	6LBicFemLong	7LRecFem	8LVastMed	9LVastLat	10LGasMed	11LTibAnt	12lTibPost	13LPeroneusLong	14LSol	15LExtDigLong	16LFlexDigLong	17RAddLong	18RGlutMax	19RGlutMed	20RIliopsoas	21RSemiMemb	22RBicFemLong	23RRecFem	24RVastMed	25RVastLat	26RGasMed	27RTibAnt	28RTibPost	29RPeroneusLong	30RSol	31RExtDigLong	32RFlexDigLong
47.875	-0.000916	0.054474	0.026703	0.009308	-0.12299	0.33081	0.10819	-0.007782	0.024109	0.002289	-0.10712	0.005035	0.0354	-0.005798	0.16785	0.013428	0.026703	0.093384	-0.13382	0.17639	-0.000458	0.11261	-0.57709	0.090942	0.15579	-0.016327	0.25085	0.004883	0.12756	-0.090179	-0.000153	-0.021057
47.876	-0.005035	0.075684	0.03479	-0.000153	-0.10559	0.30151	0.050964	0.003052	-0.14313	0.026703	-0.076599	0.013885	0.02655	0.013733	-0.005493	0.008698	0.046692	0.019836	-0.066681	0.059052	-0.040588	0.050507	-0.45822	0.035095	0.079651	0.007324	0.15518	-0.000763	0.082397	-0.053406	-0.001526	-0.019226
47.877	-0.000153	0.055389	0.079041	0.016479	-0.083618	0.11261	0.022278	0.006256	-0.1767	0.028687	-0.014191	0.016632	0.094147	-0.00061	-0.14862	-0.000916	0.031433	-0.011444	-0.036316	0.011749	-0.054169	0.014191	-0.40237	-0.005646	0.056	0.010986	0.10056	-0.00412	0.177	-0.12695	0.006561	-0.026093
47.878	-0.002747	0.05722	0.11459	0.019531	-0.006409	0.052948	0.03891	0.018311	-0.002441	0.03006	-0.02533	0.019073	0.20142	-0.029907	-0.14816	0.012817	0.0177	-0.088196	-0.037689	-0.041351	-0.10223	-0.042114	-0.49118	0.026703	0.069885	0.015869	0.099335	-0.008392	0.13336	-0.15091	-0.001526	-0.022278
47.879	-0.021667	0.063782	0.11414	0.014496	-0.00351	-0.000305	0.048981	0.039215	0.027008	0.004272	-0.073242	0.014648	0.33127	-0.050964	-0.081482	0.01358	0.036011	-0.052643	-0.042877	-0.018768	-0.12344	-0.066528	-0.44708	0.037537	0.072784	0.011292	0.10727	-0.007324	0.072937	0.000305	-0.00061	-0.025787
47.88	-0.018311	0.050354	0.093079	0.006409	-0.041199	-0.088196	-0.033417	-0.001068	0.024719	-0.002441	-0.056915	0.016174	0.12039	-0.040131	-0.052948	0.011139	0.036316	-0.11398	-0.10407	-0.057373	-0.041504	-0.1059	-0.48508	0.02655	0.07309	-0.000458	0.10513	0.000153	-0.030518	0.13123	-0.002136	-0.026398
47.881	-0.012665	-0.022583	0.050201	0.010223	0.066376	-0.20706	-0.09552	0.031433	0.012207	0.015869	0.020294	0.016174	-0.13168	-0.080261	-0.076904	0.009613	0.058136	-0.11887	-0.12466	-0.030823	0.032806	-0.067139	-0.36896	-0.026703	0.042419	-0.002594	0.077209	-0.003204	-0.13473	0.074005	0.007629	-0.032959
47.882	0.014954	-0.009918	-0.005493	0.007935	0.14267	-0.32959	-0.12497	0.010529	-0.005951	0.010376	0.024261	0.022888	-0.15564	-0.11795	-0.10391	0.022736	0.070343	-0.02655	-0.13306	-0.042725	0.021362	0.020294	-0.35675	-0.019531	0.025635	0.005493	0.050049	-0.01297	-0.16037	-0.074768	0.000305	-0.019989
47.883	0.042725	-0.097198	-0.074768	0.004272	0.18326	-0.45715	-0.22201	-0.013275	-0.04364	0.014954	0.019379	0.017853	-0.074463	-0.048828	-0.040894	0.017242	0.048523	-0.016174	-0.23773	-0.054626	0.15137	0.11307	-0.36087	-0.036621	0.040894	0.007629	0.016937	-0.002899	-0.10498	-0.065765	0.002289	-0.019379
47.884	0.0354	-0.12512	-0.12665	0.01297	0.15579	-0.40192	-0.083771	-0.002136	-0.007629	0.020447	0.018158	0.025177	0.22766	0.038605	0.022583	0.023956	0.01297	-0.12589	-0.18936	-0.094299	0.1387	0.24231	-0.34225	-0.028076	0.018463	-0.009155	-0.013885	-0.013733	-0.095978	-0.065002	0.000153	-0.014496
47.885	0.029755	-0.11261	-0.10452	0.000305	0.13092	-0.20401	-0.000153	0.000305	0.03418	-0.001068	0.009308	0.015106	0.06012	0.092468	0.090332	0.045319	-0.028229	-0.1088	-0.20645	-0.090332	0.065765	0.30777	-0.32089	0.020752	0.018616	-0.002441	-0.013885	-0.002289	0.007782	-0.060425	-0.003967	-0.020294
47.886	0.038757	-0.17792	0.006409	-0.00351	0.14603	0.018463	0.020142	-0.008545	0.14877	-0.008545	0.013275	0.010529	-0.35248	0.068665	0.12268	0.037994	-0.070343	-0.040283	-0.16403	-0.17029	-0.024567	0.31647	-0.34622	0.017853	0.009918	0.003662	-0.017242	-0.008698	0.046082	-0.030975	-0.002136	-0.014801
47.887	0.02655	-0.30441	-0.0177	0.010071	0.056	0.12131	-0.003662	-0.012665	0.08606	0.007935	0.007324	0.021973	0.019379	0.10239	0.13199	0.03067	-0.053406	-0.13397	-0.13962	-0.16449	0.02594	0.18845	-0.3154	0.011292	0.002594	-0.018311	-0.001678	-0.007477	0.016479	-0.067749	-0.002747	-0.023651
47.888	0.014496	-0.3421	0.036621	0.028381	0.028076	0.098419	-0.037384	0.008545	0.00946	-0.002899	-0.001373	0.01358	-0.075226	0.11398	0.10269	0.029297	-0.022736	-0.1561	-0.050812	-0.050812	0.084686	0.044861	-0.27908	-0.030518	-0.014648	-0.022278	0.039673	-0.016174	-0.11581	-0.16113	-0.001221	-0.022278
47.889	0.013885	-0.31784	0.079346	0.005035	0.002136	0.13809	-0.092163	0.019989	0.071411	0.014191	-0.011597	0.014954	-0.14297	0.16296	0.042572	0.027924	0.002441	-0.16586	-0.13809	0.074768	0.031433	-0.15533	-0.33478	-0.015411	-0.001068	-0.042419	0.017853	-0.028839	-0.1683	-0.18601	-0.000916	-0.023651
47.89	0.012207	-0.24292	0.14099	-0.009613	-0.054321	0.2153	-0.093842	0.019531	0.14847	0.010986	-0.003967	0.006256	-0.14297	0.21255	0.056763	0.016785	0.021362	-0.2356	-0.20462	0.13611	0.002136	-0.18463	-0.33997	-0.037384	-0.003204	-0.041504	0.029755	-0.033875	0.26123	-0.25742	-0.001831	-0.027771
47.891	0.005798	-0.19012	0.13062	-0.005188	-0.023499	0.089264	-0.21545	0.013885	0.30518	-0.006104	0.017853	0.006104	-0.11475	0.18707	0.012207	0.020752	0.003357	-0.2211	-0.18753	0.096283	-0.02655	-0.074463	-0.39627	-0.005646	-0.006561	-0.011749	0.028687	-0.025177	0.46219	-0.45746	0.001678	-0.029144
47.892	-0.009155	-0.14114	0.009918	-0.006256	0.007629	0.15549	-0.18982	0.015564	0.49103	0.019684	0.019379	-0.007324	-0.2626	0.1445	-0.087433	0.024872	0.014801	-0.20538	-0.17822	0.052948	-0.056915	0.023651	-0.39673	0.031281	-0.003815	0.029907	-0.023956	-0.011292	0.34012	-0.95581	0.006104	-0.033112
47.893	-0.008698	-0.1033	-0.02121	-0.000458	0.013428	0.28961	-0.1886	-0.000305	0.40527	-0.019531	0.010223	-0.022888	-0.024567	0.16739	-0.11231	0.028687	0.029297	-0.28625	-0.15045	0.034485	-0.089722	0.18005	-0.38986	-0.001221	-0.014648	0.05188	-0.010834	-0.00824	0.2945	-1.0716	-0.000153	-0.037842
47.894	-0.009308	-0.075226	-0.11276	0.019684	-0.036163	0.2684	-0.19669	0.004272	0.27008	-0.050201	-0.008087	-0.01236	0.26871	0.20279	-0.059204	0.032501	0.035095	-0.36301	-0.12283	-0.032349	-0.066833	0.21973	-0.37231	-0.032349	-0.018921	0.040894	-0.001831	0.009613	0.42801	-0.37827	0.00061	-0.041962
47.895	-0.018158	-0.056	-0.19241	0.030212	-0.074615	-0.092621	-0.1326	0.007477	0.26077	-0.067139	-0.018616	-0.005646	0.53986	0.25299	-0.025024	0.034637	0.034485	-0.34546	-0.18478	-0.072021	-0.026703	0.06958	-0.34744	-0.022278	-0.012512	0.019836	-0.007629	0.084839	0.37079	0.36011	-0.00061	-0.027466
47.896	-0.010681	-0.053406	-0.19333	0.018921	-0.054016	-0.4686	-0.041809	0.032501	0.14404	-0.063324	-0.007935	-0.00885	0.78476	0.20905	-0.078583	0.031433	0.052948	-0.38254	-0.10468	-0.071716	-0.063171	-0.10986	-0.36743	-0.026703	-0.020752	-0.072174	-0.041351	0.03479	0.28137	0.36026	0.000763	-0.020142
47.897	-0.002136	-0.042114	-0.070648	0.002899	-0.014343	-0.39429	0.001984	0.021667	-0.090942	-0.072479	0.016327	0.001068	0.5159	0.17609	-0.11917	0.027313	0.052795	-0.40878	-0.098877	-0.028534	-0.095825	-0.1239	-0.36743	-0.059509	-0.019379	-0.063782	-0.009155	-0.010376	0.034332	0.67505	-0.002136	-0.028534
47.898	0.000763	-0.077972	0.018005	0.001373	-0.015564	-0.22873	0.032959	-0.00946	-0.20706	-0.094299	0.009918	-0.006256	-0.25375	0.2504	-0.1828	0.024109	0.05661	-0.29572	-0.072632	0.029755	-0.091553	-0.055542	-0.32959	-0.02655	-0.01297	-0.03006	-0.023346	-0.17471	-0.13687	0.51163	-0.001678	-0.025024
47.899	0.013275	-0.091553	0.069122	0.001984	-0.005188	-0.28259	0.12894	-0.040436	-0.13596	-0.079498	0.039368	0.000153	-1.1589	0.24124	-0.25909	0.028229	0.041046	-0.16693	-0.071259	0.073242	-0.076294	-0.013733	-0.34317	-0.035553	-0.033112	0.008087	0.003357	-0.18723	-0.67215	0.092621	-0.002441	-0.024109
47.9	0.011139	0.013885	-0.021667	-0.001221	-0.03891	-0.33463	0.17441	-0.042725	-0.31235	-0.092621	0.005341	-0.001373	-0.59769	0.1181	-0.32044	0.006256	0.084076	-0.32593	-0.074463	0.04303	-0.10834	0.036316	-0.32715	-0.046997	-0.050812	0.029755	0.021973	0.25391	-0.57739	-0.12253	0.006866	-0.027008
47.901	-0.004272	0.055542	-0.036926	-0.005341	-0.00946	-0.21988	0.16434	-0.012817	-0.43015	-0.11078	-0.021667	-0.001068	0.10056	0.10025	-0.16174	0.001068	0.090332	-0.40085	-0.058289	-0.055389	-0.14389	0.13504	-0.34607	-0.032806	-0.047607	0.06424	-0.020905	0.065765	0.002899	0.25787	-0.00061	-0.011597
47.902	-0.024109	-0.007782	-0.027313	0.000305	0.014343	-0.071869	0.078888	0	-0.51025	-0.068817	-0.012512	-0.006561	0.091858	0.067596	0.1062	-0.028687	0.080719	-0.46463	0.062408	-0.1828	-0.10788	0.3009	-0.39261	-0.040741	-0.034027	0.043793	-0.070496	0.016937	0.39917	0.46982	-0.000763	-0.006714
47.903	-0.036774	-0.011597	-0.007019	-0.002289	-0.068054	0.014038	0.000153	-0.008698	-0.45517	-0.09613	0.007477	0.001678	-0.30563	0.20401	0.36682	-0.019836	0.061188	-0.5191	0.13092	-0.2066	-0.019989	0.26443	-0.40192	-0.031586	-0.013428	0.020599	-0.10376	0.068817	0.55084	0.3894	-0.000916	-0.011902
47.904	-0.052185	-0.034027	0.0914	-0.003662	-0.10513	0.054169	0.024872	0.000458	-0.33691	-0.14038	-0.00412	0.008545	-0.13397	0.15259	0.29953	-0.024567	0.03418	-0.52292	0.10544	-0.079041	-0.029144	0.25207	-0.43671	0.002899	-0.018921	-0.003815	-0.07019	0.058746	0.62393	0.37186	0.000153	-0.015717
